<svg width="81" height="20" viewBox="0 0 81 20" fill="none" xmlns="http://www.w3.org/2000/svg">
<path d="M21.6963 6.15039H25.5107C27.2803 6.15039 28.5576 6.4082 29.3428 6.92383C30.1338 7.43945 30.5293 8.25391 30.5293 9.36719C30.5293 10.1172 30.3359 10.7412 29.9492 11.2393C29.5625 11.7373 29.0059 12.0508 28.2793 12.1797V12.2676C29.1816 12.4375 29.8438 12.7744 30.2656 13.2783C30.6934 13.7764 30.9072 14.4531 30.9072 15.3086C30.9072 16.4629 30.5029 17.3682 29.6943 18.0244C28.8916 18.6748 27.7725 19 26.3369 19H21.6963V6.15039ZM23.7969 11.459H25.8184C26.6973 11.459 27.3389 11.3213 27.7432 11.0459C28.1475 10.7646 28.3496 10.29 28.3496 9.62207C28.3496 9.01855 28.1299 8.58203 27.6904 8.3125C27.2568 8.04297 26.5654 7.9082 25.6162 7.9082H23.7969V11.459ZM23.7969 13.1641V17.2334H26.0293C26.9082 17.2334 27.5703 17.0664 28.0156 16.7324C28.4668 16.3926 28.6924 15.8594 28.6924 15.1328C28.6924 14.4648 28.4639 13.9697 28.0068 13.6475C27.5498 13.3252 26.8555 13.1641 25.9238 13.1641H23.7969ZM41.9814 14.1221C41.9814 15.71 41.5742 16.9492 40.7598 17.8398C39.9453 18.7305 38.8115 19.1758 37.3584 19.1758C36.4502 19.1758 35.6475 18.9707 34.9502 18.5605C34.2529 18.1504 33.7168 17.5615 33.3418 16.7939C32.9668 16.0264 32.7793 15.1357 32.7793 14.1221C32.7793 12.5459 33.1836 11.3154 33.9922 10.4307C34.8008 9.5459 35.9404 9.10352 37.4111 9.10352C38.8174 9.10352 39.9307 9.55762 40.751 10.4658C41.5713 11.3682 41.9814 12.5869 41.9814 14.1221ZM34.9062 14.1221C34.9062 16.3662 35.7354 17.4883 37.3936 17.4883C39.0342 17.4883 39.8545 16.3662 39.8545 14.1221C39.8545 11.9014 39.0283 10.791 37.376 10.791C36.5088 10.791 35.8789 11.0781 35.4863 11.6523C35.0996 12.2266 34.9062 13.0498 34.9062 14.1221ZM46.3408 9.2793V14.2627C46.3408 14.8428 46.2939 15.6953 46.2002 16.8203L51.0781 9.2793H53.6006V19H51.6143V14.1045C51.6143 13.835 51.6289 13.3984 51.6582 12.7949C51.6934 12.1914 51.7227 11.752 51.7461 11.4766L46.8857 19H44.3633V9.2793H46.3408ZM48.916 8.09277C47.6738 8.09277 46.7627 7.87012 46.1826 7.4248C45.6084 6.97363 45.2891 6.22363 45.2246 5.1748H47.0967C47.1318 5.59668 47.2109 5.9248 47.334 6.15918C47.4629 6.39355 47.6445 6.56348 47.8789 6.66895C48.1191 6.76855 48.4824 6.81836 48.9688 6.81836C49.543 6.81836 49.9795 6.69238 50.2783 6.44043C50.5771 6.18262 50.7588 5.76074 50.8232 5.1748H52.7305C52.6426 6.18262 52.2881 6.9209 51.667 7.38965C51.0459 7.8584 50.1289 8.09277 48.916 8.09277ZM63.8486 9.2793V10.8965H60.6846V19H58.6104V10.8965H55.4463V9.2793H63.8486ZM67.6982 9.2793V14.2627C67.6982 14.8428 67.6514 15.6953 67.5576 16.8203L72.4355 9.2793H74.958V19H72.9717V14.1045C72.9717 13.835 72.9863 13.3984 73.0156 12.7949C73.0508 12.1914 73.0801 11.752 73.1035 11.4766L68.2432 19H65.7207V9.2793H67.6982Z" fill="white"/>
<path d="M5.12056 15.0928L6.13889 16.1111L9.75 12.5L6.13889 8.88889L5.12056 9.90722L6.98389 11.7778H0V13.2222H6.98389L5.12056 15.0928ZM11.5556 6H1.44444C0.642778 6 0 6.65 0 7.44444V10.3333H1.44444V7.44444H11.5556V17.5556H1.44444V14.6667H0V17.5556C0 18.35 0.642778 19 1.44444 19H11.5556C12.35 19 13 18.35 13 17.5556V7.44444C13 6.65 12.35 6 11.5556 6Z" fill="white"/>
</svg>
