<svg width="52" height="19" viewBox="0 0 52 19" fill="none" xmlns="http://www.w3.org/2000/svg">
<path d="M14.1309 4.43359H16.6738C17.8535 4.43359 18.7051 4.60547 19.2285 4.94922C19.7559 5.29297 20.0195 5.83594 20.0195 6.57812C20.0195 7.07812 19.8906 7.49414 19.6328 7.82617C19.375 8.1582 19.0039 8.36719 18.5195 8.45312V8.51172C19.1211 8.625 19.5625 8.84961 19.8438 9.18555C20.1289 9.51758 20.2715 9.96875 20.2715 10.5391C20.2715 11.3086 20.002 11.9121 19.4629 12.3496C18.9277 12.7832 18.1816 13 17.2246 13H14.1309V4.43359ZM15.5312 7.97266H16.8789C17.4648 7.97266 17.8926 7.88086 18.1621 7.69727C18.4316 7.50977 18.5664 7.19336 18.5664 6.74805C18.5664 6.3457 18.4199 6.05469 18.127 5.875C17.8379 5.69531 17.377 5.60547 16.7441 5.60547H15.5312V7.97266ZM15.5312 9.10938V11.8223H17.0195C17.6055 11.8223 18.0469 11.7109 18.3438 11.4883C18.6445 11.2617 18.7949 10.9062 18.7949 10.4219C18.7949 9.97656 18.6426 9.64648 18.3379 9.43164C18.0332 9.2168 17.5703 9.10938 16.9492 9.10938H15.5312ZM27.6543 9.74805C27.6543 10.8066 27.3828 11.6328 26.8398 12.2266C26.2969 12.8203 25.541 13.1172 24.5723 13.1172C23.9668 13.1172 23.4316 12.9805 22.9668 12.707C22.502 12.4336 22.1445 12.041 21.8945 11.5293C21.6445 11.0176 21.5195 10.4238 21.5195 9.74805C21.5195 8.69727 21.7891 7.87695 22.3281 7.28711C22.8672 6.69727 23.627 6.40234 24.6074 6.40234C25.5449 6.40234 26.2871 6.70508 26.834 7.31055C27.3809 7.91211 27.6543 8.72461 27.6543 9.74805ZM22.9375 9.74805C22.9375 11.2441 23.4902 11.9922 24.5957 11.9922C25.6895 11.9922 26.2363 11.2441 26.2363 9.74805C26.2363 8.26758 25.6855 7.52734 24.584 7.52734C24.0059 7.52734 23.5859 7.71875 23.3242 8.10156C23.0664 8.48438 22.9375 9.0332 22.9375 9.74805ZM30.5605 6.51953V9.8418C30.5605 10.2285 30.5293 10.7969 30.4668 11.5469L33.7188 6.51953H35.4004V13H34.0762V9.73633C34.0762 9.55664 34.0859 9.26562 34.1055 8.86328C34.1289 8.46094 34.1484 8.16797 34.1641 7.98438L30.9238 13H29.2422V6.51953H30.5605ZM32.2773 5.72852C31.4492 5.72852 30.8418 5.58008 30.4551 5.2832C30.0723 4.98242 29.8594 4.48242 29.8164 3.7832H31.0645C31.0879 4.06445 31.1406 4.2832 31.2227 4.43945C31.3086 4.5957 31.4297 4.70898 31.5859 4.7793C31.7461 4.8457 31.9883 4.87891 32.3125 4.87891C32.6953 4.87891 32.9863 4.79492 33.1855 4.62695C33.3848 4.45508 33.5059 4.17383 33.5488 3.7832H34.8203C34.7617 4.45508 34.5254 4.94727 34.1113 5.25977C33.6973 5.57227 33.0859 5.72852 32.2773 5.72852ZM42.2324 6.51953V7.59766H40.123V13H38.7402V7.59766H36.6309V6.51953H42.2324ZM44.7988 6.51953V9.8418C44.7988 10.2285 44.7676 10.7969 44.7051 11.5469L47.957 6.51953H49.6387V13H48.3145V9.73633C48.3145 9.55664 48.3242 9.26562 48.3438 8.86328C48.3672 8.46094 48.3867 8.16797 48.4023 7.98438L45.1621 13H43.4805V6.51953H44.7988Z" fill="white"/>
<path d="M3.545 10.295L4.25 11L6.75 8.5L4.25 6L3.545 6.705L4.835 8H0V9H4.835L3.545 10.295ZM8 4H1C0.445 4 0 4.45 0 5V7H1V5H8V12H1V10H0V12C0 12.55 0.445 13 1 13H8C8.55 13 9 12.55 9 12V5C9 4.45 8.55 4 8 4Z" fill="white"/>
</svg>
